<svg xmlns="http://www.w3.org/2000/svg" viewBox="0 0 200 205"><defs><style>.cls-1{isolation:isolate;}.cls-2{opacity:0.3;mix-blend-mode:multiply;}.cls-3{fill:#fff;}.cls-4{fill:#bebfbf;}.cls-5{fill:#f2a679;}.cls-6{fill:#a65e58;}</style></defs><g class="cls-1"><g id="map"><g class="cls-2"><circle cx="100" cy="105" r="99"/><path d="M100,7A98,98,0,1,1,2,105,98.111,98.111,0,0,1,100,7m0-2A100,100,0,1,0,200,105,100,100,0,0,0,100,5Z" transform="translate(0 0)"/></g><circle class="cls-3" cx="100" cy="100" r="99"/><path class="cls-4" d="M100,2A98,98,0,1,1,2,100,98.111,98.111,0,0,1,100,2m0-2A100,100,0,1,0,200,100,100,100,0,0,0,100,0Z" transform="translate(0 0)"/><path class="cls-5" d="M110.1782,126.5089l-.0062-.0366c-1.4694-8.7246,3.5069-14.9926,3.897-22.9412.4689-9.5518-8.8607-16.5977-17.07-18.4818a20.6215,20.6215,0,0,0-11.9767.5984c-10.6557,4.0224-8.1363,10.228-20.3,4.6974C61.0971,88.6967,57.37,86.9926,53.2533,86.87c-14.91-.4428-22.856,16.4894-20.68,29.0255,3.2815,18.8971,28.3709,32.7032,40.6852,45.3116,11.45,11.7241,40.5317,1.6964,40.4158-16.8908C113.6355,138.1474,111.1932,132.4994,110.1782,126.5089Z" transform="translate(0 0)"/><path class="cls-5" d="M74.4385,79.0831c-4.1138.3192-8.6129-1.7656-12.69-7.8216-8.1821-12.1548,12.1226-32.2255,22.4451-29.84C98.2531,44.671,86.3312,78.16,74.4385,79.0831Z" transform="translate(0 0)"/><path class="cls-5" d="M107.4094,79.062c-24.7137-3.7906-1.9205-44.9076,17.261-35.3454C137.6407,50.1822,119.1461,80.8614,107.4094,79.062Z" transform="translate(0 0)"/><path class="cls-5" d="M133.5785,100.5815c-4.413.254-8.2479-1.96-10.2384-7.9772-4.663-14.0971,19.6469-30.9288,28.82-26.505C167.7832,73.633,147.7147,99.7679,133.5785,100.5815Z" transform="translate(0 0)"/><path class="cls-5" d="M121.6526,126.3825c.3689,4.0732,3.3525,7.958,10.4732,10.5019,14.2917,5.105,32.0771-19.3327,27.7732-28.807C154.0372,95.1734,120.5863,114.6068,121.6526,126.3825Z" transform="translate(0 0)"/><path class="cls-6" d="M85.3386,36.1117a17.0275,17.0275,0,0,0,7.2506,4.12c1.9536-3.1.19-7.4663,1.352-10.8093C93.2194,29.7471,84.8516,35.6087,85.3386,36.1117Z" transform="translate(0 0)"/><path class="cls-6" d="M122.6086,36.9931c1.1762.9685,7.115,4.2875,7.567,3.3258,1.43-3.0427.0857-7.4715-.0939-10.6743-3.1209,1.5717-5.348,4.6871-7.6307,7.2015A1.3547,1.3547,0,0,0,122.6086,36.9931Z" transform="translate(0 0)"/><path class="cls-6" d="M157.94,64.476a1.683,1.683,0,0,0-.0241.4413c.0869,1.32,1.5955,2.4385,2.5112,3.2065,2.136,1.7913,3.2307,2.3968,4.2488-.4265.6779-1.88,2.5357-5.9913,1.8932-7.8383-2.3581.4454-4.5915,1.9449-6.69,3.0752C158.8774,63.4736,158.0961,63.6981,157.94,64.476Z" transform="translate(0 0)"/><path class="cls-6" d="M161.1174,100.1733c-.0692.4411.2221.9839.8231,1.8806a9.626,9.626,0,0,0,2.8371,2.9953c3.6642,2.0678,5.0966-7.0606,5-9.1279a7.19,7.19,0,0,0-3.2848.8717c-1.3092.6117-2.596,1.2886-3.8547,2.0061C161.6775,99.3462,161.1915,99.7015,161.1174,100.1733Z" transform="translate(0 0)"/></g></g></svg>