<svg xmlns="http://www.w3.org/2000/svg" viewBox="0 0 200 205"><defs><style>.cls-1{isolation:isolate;}.cls-2{opacity:0.3;mix-blend-mode:multiply;}.cls-3{fill:#fff;}.cls-4{fill:#bebfbf;}.cls-5{fill:#a9cc6b;}.cls-6{fill:none;}.cls-7{fill:#bbc792;}.cls-8{fill:#bf8275;}.cls-9{fill:#67bc89;}.cls-10{fill:#aed681;}.cls-11{fill:#9ccc65;}.cls-12{fill:#8bc44a;}</style></defs><g class="cls-1"><g id="map"><g class="cls-2"><circle cx="100" cy="105" r="99"/><path d="M100,7A98,98,0,1,1,2,105,98.111,98.111,0,0,1,100,7m0-2A100,100,0,1,0,200,105,100,100,0,0,0,100,5Z" transform="translate(0 0)"/></g><circle class="cls-3" cx="100" cy="100" r="99"/><path class="cls-4" d="M100,2A98,98,0,1,1,2,100,98.111,98.111,0,0,1,100,2m0-2A100,100,0,1,0,200,100,100,100,0,0,0,100,0Z" transform="translate(0 0)"/><g id="pOBzZH.tif"><path class="cls-5" d="M139.06,156.5768c10.55,3.0236,21.0561,6.1611,30.5977,12.0323-46.7516,47.5278-107.5333,31.3909-139.7233,0,9.517-5.9779,20.0008-9.1193,30.599-11.96q.795-.1358,1.5911-.2713c1.01.1371,1.9813.1665,2.5567-.9118,11.13-1.67,22.2718-3.2377,33.5554-3.3771a4.35,4.35,0,0,0,3.0324.1089c6.3783.3076,12.7587.4179,19.1236,1.1536,5.3795.6217,10.5845,2.426,16.0641,2.2711C137.082,156.6038,138.0571,156.6288,139.06,156.5768Z" transform="translate(0 0)"/><path class="cls-6" d="M110.93,83.984c-.1649.071-.3382.119-.5049.1859h.0535l2.5547,4.3279-.9756-5.217A4.6846,4.6846,0,0,1,110.93,83.984Z" transform="translate(0 0)"/><path class="cls-7" d="M112.0573,83.2808l.9756,5.217,5.3742,9.1051a5.1259,5.1259,0,0,1,.7355,2.6249,5.5974,5.5974,0,0,1-2.6929,4.6428l.1226.2072a3.1385,3.1385,0,0,0,.8655-.1681,22.8122,22.8122,0,0,0,20.6527,11.061V98.2l-12.883-26.058a1.2123,1.2123,0,1,1,2.1736-1.0744L138.0905,92.728V75.5833a1.2124,1.2124,0,1,1,2.4247,0V94.3849l11.7383-15.05a1.2124,1.2124,0,1,1,1.9121,1.4912l-13.65,17.5016v17.4088c8.2351-1.226,16.3331-6.932,20.9157-18.0191,2.5664-.9258,5.114,2.3726,5.7587-4.7067.0064-27.5683-28.6693-51.8682-27.1044-66.1655-1.5587,1.1834-27.7993,22.1907-29.7523,47.2111l2.68,4.541A3.585,3.585,0,0,1,112.0573,83.2808Z" transform="translate(0 0)"/><path class="cls-8" d="M140.5152,94.3849V75.5833a1.2124,1.2124,0,1,0-2.4247,0V92.728l1.4421,2.9173Z" transform="translate(0 0)"/><path class="cls-8" d="M140.2571,98.6585a1.2123,1.2123,0,0,1-2.0428-.2084l-.1238-.2505v60.8768c.4031.0924.81.1729,1.2122.2676.3868.0911.7686.1953,1.1542.2889a1.16,1.16,0,0,0,.0583-.2889V98.3275Z" transform="translate(0 0)"/><path class="cls-8" d="M139.178,99.119a1.22,1.22,0,0,0,1.0791-.46l.2581-.331,13.65-17.5016a1.2124,1.2124,0,1,0-1.9121-1.4912l-11.7383,15.05-.9826,1.26-1.4421-2.9173L127.3811,71.0672a1.2123,1.2123,0,1,0-2.1736,1.0744L138.0905,98.2l.1238.2505A1.212,1.212,0,0,0,139.178,99.119Z" transform="translate(0 0)"/><path class="cls-6" d="M99.9876,138.5622c0-.0107.0057-.019.006-.03a53.6124,53.6124,0,0,1-19.9591-4.2569,9.2775,9.2775,0,0,1-5.0282-4.8785l-.0032.0006a27.8722,27.8722,0,0,1-9.1121,3.1535,1.1144,1.1144,0,0,1,.0332.1645v25.9984a166.3284,166.3284,0,0,1,34.0668-3.76c0-.0065-.0034-.0113-.0034-.0172Z" transform="translate(0 0)"/><path class="cls-6" d="M117.4378,104.91a3.1385,3.1385,0,0,1-.8655.1681l10.3184,17.48a7.6923,7.6923,0,0,1,1.0972,3.9184,8.6845,8.6845,0,0,1-5.629,7.8,53.6148,53.6148,0,0,1-19.9526,4.2569c0,.0106.006.0189.006.03v16.3751c0,.0065-.0035.0113-.0035.0178a165.7857,165.7857,0,0,1,35.6817,4.1213V115.9707A22.8122,22.8122,0,0,1,117.4378,104.91Z" transform="translate(0 0)"/><path class="cls-8" d="M65.9242,158.7142V132.7158a1.1144,1.1144,0,0,0-.0332-.1645c-.3907.0616-.7828.12-1.1788.1645-.3991.0468-.8084.0575-1.2127.0858v26.167a1.17,1.17,0,0,0,.0562.2783c.3865-.09.7688-.1912,1.1564-.2783C65.1141,158.8787,65.5211,158.8012,65.9242,158.7142Z" transform="translate(0 0)"/><path class="cls-8" d="M102.4123,138.5622c0-.0107-.0057-.019-.006-.03-.4033.0088-.8062.03-1.21.03-.4012,0-.8019-.0208-1.203-.03,0,.0106-.006.0189-.006.03v16.3751c0,.0059.0034.0107.0034.0172.4037-.0029.8046-.0172,1.2089-.0172s.8052.0149,1.2089.0178c0-.0065.0035-.0113.0035-.0178Z" transform="translate(0 0)"/><path class="cls-9" d="M65.891,132.5513a27.8722,27.8722,0,0,0,9.1121-3.1535l.0032-.0006a7.5539,7.5539,0,0,1,.4967-6.84l10.4406-17.6869a5.3193,5.3193,0,0,1-1.9508-7.2677l3.0847-5.2265A37.2345,37.2345,0,0,0,81.3629,82.45v-.0065l-.0012.003a69.0892,69.0892,0,0,1-23.6863-4.3451,90.4482,90.4482,0,0,0,21.8624-.8631c-.6973-2.1323-1.4177-4.4937-2.1494-7.1292-4.8426-17.4318-3.3274-21.9658-6.7692-23.3722-10.3424-4.219-45.8235,27.866-38.8885,58.0239.08.3376.16.6809.2516,1.0236,4.6651,1.6693,12.995,3.4932,25.6931,2.3271,0,0-10.617,5.854-22.5317,5.98l-.0023.0013c4.1437,10.6792,13.79,17.9907,24.6692,18.7412a26.48,26.48,0,0,0,3.6889-.0326c.4043-.0283.8136-.039,1.2127-.0858C65.1082,132.6708,65.5,132.6129,65.891,132.5513Z" transform="translate(0 0)"/><path class="cls-10" d="M80.0345,134.2757a53.6124,53.6124,0,0,0,19.9591,4.2569c.4011.0088.8018.03,1.203.03.4035,0,.8064-.0208,1.21-.03a53.6148,53.6148,0,0,0,19.9526-4.2569,8.6845,8.6845,0,0,0,5.629-7.8,7.6923,7.6923,0,0,0-1.0972-3.9184l-10.3184-17.48-.1226-.2072a6.8628,6.8628,0,0,1-1.0782.58,36.4245,36.4245,0,0,1-28.3431,0,7.0885,7.0885,0,0,1-1.0848-.58L75.503,122.5575a7.5539,7.5539,0,0,0-.4967,6.84A9.2775,9.2775,0,0,0,80.0345,134.2757Z" transform="translate(0 0)"/><path class="cls-11" d="M85.9436,104.8706a7.0885,7.0885,0,0,0,1.0848.58,36.4245,36.4245,0,0,0,28.3431,0,6.8628,6.8628,0,0,0,1.0782-.58,5.5974,5.5974,0,0,0,2.6929-4.6428,5.1259,5.1259,0,0,0-.7355-2.6249l-5.3742-9.1051L110.4782,84.17h-.0535a24.9989,24.9989,0,0,1-18.4524,0h-.0509l-4.8439,8.2065-3.0847,5.2265A5.3193,5.3193,0,0,0,85.9436,104.8706Z" transform="translate(0 0)"/><path class="cls-12" d="M110.4247,84.17c.1667-.0669.34-.1149.5049-.1859a4.6846,4.6846,0,0,0,1.1277-.7032,3.585,3.585,0,0,0,.9557-4.6837l-2.68-4.541-7.648-12.9584a1.8041,1.8041,0,0,0-2.9725,0L89.3839,78.5971c-1.168,1.9789-.2347,4.3918,2.0834,5.3869.1652.071.3386.119.505.1859A24.9989,24.9989,0,0,0,110.4247,84.17Z" transform="translate(0 0)"/></g></g></g></svg>