<svg id="map" xmlns="http://www.w3.org/2000/svg" viewBox="0 0 157.1472 174.1877"><defs><style>.cls-1{fill:#51bdc6;}.cls-2{fill:#242525;}.cls-3{fill:#ecf1f2;}</style></defs><g id="r7wzx7.tif"><path class="cls-1" d="M86.765,155.967c-2.0142-.9365-4.1607-.8473-6.3052-.8456q-21.01.0165-42.02-.0124c-1.7459-.0043-3.8266.57-4.9565-1.3479-1.2512-2.1235.4314-3.6932,1.3955-5.3587,5.1954-8.9751,10.3548-17.9714,15.5995-26.9176,1.7184-2.9311,1.1384-3.9574-2.3519-4.0493C43,117.3,42.2654,115.56,45.0636,110.918Q54.107,95.9164,63.23,80.9251c-1.4682-1.914-3.419-1.0542-5.0814-1.1514-4.7806-.28-5.7217-1.6364-3.1128-5.7826,5.1719-8.2194,10.6508-16.2454,15.9815-24.3653,7.4993-11.4233,14.9578-22.8734,22.478-34.2829,2.1441-3.2529,5.6575-3.2481,7.7956.0087,12.6324,19.2411,25.1558,38.5538,37.7406,57.8262.9988,1.53,2.3321,3.0048,1.4553,4.9425-1.07,2.3656-3.3772,1.504-5.2529,1.6433-1.138.0845-2.2875.0156-3.8747.0156,1.8105,5.5236,5.3816,9.4617,7.71,14.1061a81.81,81.81,0,0,0,6.0681,10.4684c7.16,10.1831,8.8507,12.6464,1.4914,13.0868-4.5771.2738-3.2859,2.4377-1.93,4.8034,5.0752,8.8562,10.2459,17.6588,15.2309,26.5653,1.92,3.43.2407,6.2775-3.69,6.3012q-24.2385.1461-48.4782.2309a9.9464,9.9464,0,0,0-5.2665.0069,41.4939,41.4939,0,0,0-10.4531-.0526C90.2235,155.0553,88.3524,154.3969,86.765,155.967Z" transform="translate(-18.7639 -12.9061)"/><path class="cls-2" d="M86.765,155.967c1.5874-1.57,3.4585-.9117,5.2751-.6747a45.6344,45.6344,0,0,1-.0168,6.321c-.5725,4.2095,1.2811,4.9355,5.1544,5.0508,4.4161.1314,5.8455-1.2608,5.2729-5.48a39.2445,39.2445,0,0,1,.0438-5.836,9.9464,9.9464,0,0,1,5.2665-.0069c.0022.168.003.3328.005.4976.1334,11.1674.1461,10.99,11.5694,11.81,18.5152,1.33,36.484,5.0417,53.2329,13.4183,1.6188.81,4.6862,1.1494,2.69,4.4161-.8764,1.4338-1.5914,2.0847-3.4866,1.2233-41.967-19.0756-85.194-18.3866-128.9849-7.9675a76.0578,76.0578,0,0,0-18.7889,7.3226c-1.9407,1.0582-3.3893,1.7255-4.75-.7807-1.4656-2.6986.7338-3.08,2.2081-3.867C34.8566,174.26,49.4163,170.9459,64.2782,168.77c6.02-.8816,12.0974-1.5366,18.1712-1.83,3.3228-.1606,4.82-1.05,4.3939-4.552A55.8782,55.8782,0,0,1,86.765,155.967Z" transform="translate(-18.7639 -12.9061)"/><path class="cls-3" d="M102.4944,155.3482a39.2445,39.2445,0,0,0-.0438,5.836c.5726,4.2191-.8568,5.6113-5.2729,5.48-3.8733-.1153-5.7269-.8413-5.1544-5.0508a45.6344,45.6344,0,0,0,.0168-6.321A41.6579,41.6579,0,0,1,102.4944,155.3482Z" transform="translate(-18.7639 -12.9061)"/></g></svg>