<svg id="map" xmlns="http://www.w3.org/2000/svg" viewBox="0 0 152.5071 114.6557"><defs><style>.cls-1{fill:#fdfffd;}.cls-2{fill:#272929;}.cls-3{fill:#fafbfb;}.cls-4{fill:#51bcc5;}.cls-5{fill:#f3f2f3;}</style></defs><g id="_7CmCl6.tif" data-name="7CmCl6.tif"><path class="cls-1" d="M164.0474,153.042a6.7527,6.7527,0,0,1,.9534,1.1024c1.6388,3.2874,4.3269,4.5085,7.7659,3.5256,3.3456-.9563,4.5387-3.5772,4.5012-6.91-.0766-6.7959.1868-13.61-.2237-20.3846a25.4776,25.4776,0,0,0-22.1231-23.55c-6.7681-.9386-13.5907.0076-20.3721-.5747-19.6348-1.686-33.7544-16.9445-33.82-36.6006-.0236-7.0694-.1695-14.1444.063-21.2063.123-3.7319-1.1256-4.9781-4.9033-4.9547q-33.0573.2041-66.1163-.0091c-3.6673-.0224-5.02,1.0211-4.9978,4.857.1506,25.83.0858,51.6613.1194,77.4921.0109,8.427.1036,16.8541.1663,25.281.0236,3.1748,1.3375,5.6062,4.46,6.5591a6.2877,6.2877,0,0,0,7.4788-2.707c.364-.5211.4443-1.3279,1.3643-1.2356,4.6818,5.9729,8.3839,5.8873,13.2106-.4516,1.5163,2.5353,3.2565,4.67,6.5592,4.7337,3.38.0654,5.12-2.2544,6.68-4.9118,3.0659,4.46,5.3355,5.6512,8.6464,4.591,4.011-1.2844,4.5461-4.6185,4.5642-8.1835.01-1.9033.1161-3.815-.0241-5.7078-.1749-2.3611.1513-3.6265,3.0576-2.7248,2.84.8811,5.831,1.2717,8.752,1.8948,7.0017,1.4937,7.0375,1.4957,7.4519,8.6153.1771,3.0437,1.4576,5.2683,4.44,6.1072A6.0934,6.0934,0,0,0,108.87,155.19c.4417-.6354.5638-1.5236,1.5728-1.7695,1.5087,2.482,3.259,4.6389,6.6232,4.5832,3.2469-.0538,4.92-2.25,6.43-4.7342,4.8364,6.377,8.5517,6.3758,13.516.2183,4.61,6.1758,7.6563,6.1926,13.4733.0747C155.8565,159.7044,159.5667,159.6487,164.0474,153.042Z" transform="translate(-24.7746 -43.4799)"/><path class="cls-2" d="M164.0474,153.042c-4.4807,6.6067-8.1909,6.6624-13.5619.5208-5.817,6.1179-8.863,6.1011-13.4733-.0747-4.9643,6.1575-8.68,6.1587-13.516-.2183-1.51,2.4838-3.1835,4.68-6.43,4.7342-3.3642.0557-5.1145-2.1012-6.6232-4.5832-1.009.2459-1.1311,1.1341-1.5728,1.7695a6.0934,6.0934,0,0,1-7.1695,2.4991c-2.982-.8389-4.2625-3.0635-4.44-6.1072-.4144-7.12-.45-7.1216-7.4519-8.6153-2.921-.6231-5.9123-1.0137-8.752-1.8948-2.9063-.9017-3.2325.3637-3.0576,2.7248.14,1.8928.0337,3.8045.0241,5.7078-.0181,3.565-.5532,6.8991-4.5642,8.1835-3.3109,1.06-5.5805-.1312-8.6464-4.591-1.5593,2.6574-3.2994,4.9772-6.68,4.9118-3.3027-.0639-5.0429-2.1984-6.5592-4.7337-4.8267,6.3389-8.5288,6.4245-13.2106.4516-.92-.0923-1,.7145-1.3643,1.2356A6.2877,6.2877,0,0,1,29.52,157.67c-3.1221-.9529-4.436-3.3843-4.46-6.5591-.0627-8.4269-.1554-16.854-.1663-25.281-.0336-25.8308.0312-51.6621-.1194-77.4921-.0223-3.8359,1.3305-4.8794,4.9978-4.857q33.0575.2012,66.1163.0091c3.7777-.0234,5.0263,1.2228,4.9033,4.9547-.2325,7.0619-.0866,14.1369-.063,21.2063.0654,19.6561,14.185,34.9146,33.82,36.6006,6.7814.5823,13.604-.3639,20.3721.5747a25.4776,25.4776,0,0,1,22.1231,23.55c.4105,6.7744.1471,13.5887.2237,20.3846.0375,3.333-1.1556,5.9539-4.5012,6.91-3.439.9829-6.1271-.2382-7.7659-3.5256A6.7527,6.7527,0,0,0,164.0474,153.042ZM77.9181,126.1011c7.6293,1.8857,15.27,4.4982,23.068,4.6486,22.9651.4432,45.9447.1134,68.9184.1691,2.452.0059,3.0481-.7146,2.4791-3.09a21.6151,21.6151,0,0,0-20.3592-16.9453c-2.4422-.1086-4.893-.02-7.34-.034-2.9817-.0164-6.7379-1.1579-8.7371.2311-2.1967,1.5262-.6353,5.53-.7651,8.4441-.0788,1.7685-.6654,2.3381-2.4079,2.328-1.7445-.01-2.0023-.8829-1.9694-2.2921.0507-2.1724-.1059-4.3549.0436-6.5181.14-2.0209-.7045-2.9153-2.6086-3.3858-2.8719-.71-6.1111-2.945-8.4034-2.1764-2.5025.839-2.3182,5.0688-3.3438,7.8052-.0474.1262-.06.265-.0991.3948-.5064,1.6727-1.6892,1.4118-2.9418,1.0562-1.3225-.3754-1.6674-1.1438-1.2208-2.4342.7532-2.1765,1.3608-4.4046,2.151-6.5667.7786-2.1306.6636-3.6108-1.493-5.1391-5.421-3.8416-5.3193-3.9833-10.1392,1.0215-.4713.4893-.9979.9309-1.429,1.4523-1.0394,1.257-1.9373,1.56-3.3276.2488-1.42-1.34-1.0084-2.2.1366-3.3037,1.4652-1.4121,2.7274-3.0575,4.2954-4.3347,2.1521-1.7528,1.69-3.1043.5487-5.45-2.09-4.297-4.5562-5.4862-8.7178-3.0485a22.593,22.593,0,0,1-2.7.89c-1.4335.6022-2.7451,1.3131-3.5649-.8691-.8886-2.3654.7339-2.7866,2.3214-3.3112,1.803-.5959,3.5946-1.2343,5.42-1.7531,1.8677-.5309,2.4224-1.3646,1.9609-3.4817-1.7569-8.06-1.65-8.0838-10.1874-8.3877-.1358-.0048-.2722-.0072-.4078-.0006-1.4775.0725-2.6288-.0433-2.6173-2.08.0105-1.8668.8334-2.3247,2.4813-2.2682,2.1724.0745,4.3577-.1019,6.5221.0491,2.12.1478,2.87-.5947,2.8112-2.75-.1322-4.8871-.1208-9.7816-.0156-14.67.0433-2.0081-.7607-2.5789-2.6375-2.5123-4.61.1636-9.2252.1969-13.8382.2827-15.9074-.066-31.8151-.0957-47.7219-.2368-2.3948-.0212-3.0247.913-2.93,3.1361.1678,3.9324.1049,7.8746.1385,11.8127q-.0081,8.1438-.0163,16.2875c.0169,13.9677.1623,27.9371-.0357,41.9017-.0526,3.7111.9519,4.7762,4.7151,4.7379C48.6065,125.81,63.263,126.0228,77.9181,126.1011Zm57.2881,14.4931c11.5542,0,23.1092-.0738,34.662.0565,2.6034.0294,3.2576-.8707,3.0932-3.291-.1921-2.8285-2.2246-1.884-3.5977-1.8863q-32.4194-.0537-64.8389.0368a50.496,50.496,0,0,1-9.6814-1.0921c-6.92-1.3245-13.6872-3.7536-20.7706-3.8705-13.7254-.2265-27.4572-.0855-41.1862-.0545-1.61.0036-3.5854-.6867-3.64,2.33-.0569,3.145,1.9054,2.6661,3.7742,2.6664q19.9821.003,39.9639.0195a20.9429,20.9429,0,0,1,4.8412.4334c13.2305,3.2058,26.5266,5.5709,40.2565,4.7094C123.7693,140.2952,129.4971,140.5928,135.2062,140.5942ZM73.63,146.57a11.305,11.305,0,0,1,.0172-2.0336c.7459-4.0147-.9668-4.9516-4.8445-4.8368-9.91.2933-19.8347.0977-29.7535.0977-10.7452,0-10.7451,0-9.7291,10.8261.0126.1348.0023.2716.01.4071.0746,1.3385.5108,2.4541,2.0471,2.5462,1.3442.0805,1.99-.8166,2.0582-2.0288.1859-3.3114,2.5791-2.8866,4.7457-2.8963,2.0454-.0092,4.2956-.3313,4.6589,2.5888.1716,1.38.6236,2.4559,2.1866,2.3261,1.277-.1059,1.7926-1.1165,1.8788-2.3.2276-3.1263,2.5655-2.6281,4.5378-2.5871,1.9192.04,4.3489-.6731,4.67,2.4534.1374,1.34.5672,2.4933,2.1306,2.4342,1.5464-.0584,1.88-1.2608,2.022-2.5778.237-2.2,1.8492-2.528,3.5826-2.3007,1.8465.2422,4.3307-1.1362,5.303,1.5988.5414,1.5227.5082,3.6972,2.743,3.2125,2.2891-.4965,1.5325-2.83,1.7174-4.487A22.9833,22.9833,0,0,0,73.63,146.57Zm63.6036-1.4907q-15.28,0-30.56.0017c-5.5081.0032-5.5373.0621-5.035,5.7486.1115,1.2633.1319,2.5878,1.7612,2.7228,1.5213.1261,2.2077-.9192,2.2894-2.2791.1914-3.1889,2.5516-2.5866,4.5015-2.6031,2.1255-.0179,4.5927-.5039,4.7338,2.8663a1.8812,1.8812,0,0,0,2.0393,2.0466c1.3223-.0441,1.8991-.98,1.9673-2.1722.1753-3.064,2.3872-2.7775,4.4369-2.7538,2.1109.0244,4.5636-.5745,4.8482,2.7567a2.0535,2.0535,0,0,0,2.0072,2.16c1.36.0378,1.8983-.8828,2.0166-2.0812.3158-3.1959,2.6668-2.8334,4.8546-2.8483,2.25-.0153,4.5218-.1758,4.6391,3.0552a1.7814,1.7814,0,0,0,1.7615,1.8779,1.8581,1.8581,0,0,0,2.1437-1.9279c.09-2.9451,2.003-3.1091,4.217-3.0022,2.3328.1127,5.1532-.762,5.4035,3.088a1.8933,1.8933,0,0,0,1.8492,1.8543,1.9144,1.9144,0,0,0,2.1247-1.981c.2051-3.2518,2.489-3.0107,4.7049-2.9525,2.2425.0588,4.7453-.5749,5.0169,3.0591.1355,1.8134,1.873,2.7574,3.193,1.29,1.6476-1.8319.8771-4.4428.6232-6.6674-.2242-1.9653-2.1447-1.2183-3.3472-1.2246C158.6937,145.0549,147.9635,145.0787,137.2334,145.0788Z" transform="translate(-24.7746 -43.4799)"/><path class="cls-3" d="M79.8039,48.32c4.613-.0858,9.2279-.1191,13.8382-.2827,1.8768-.0666,2.6808.5042,2.6375,2.5123-.1052,4.8882-.1166,9.7827.0156,14.67.0584,2.1555-.6916,2.898-2.8112,2.75-2.1644-.151-4.35.0254-6.5221-.0491-1.6479-.0565-2.4708.4014-2.4813,2.2682-.0115,2.0366,1.14,2.1524,2.6173,2.08.1356-.0066.272-.0042.4078.0006,8.5379.3039,8.43.3273,10.1874,8.3877.4615,2.1171-.0932,2.9508-1.9609,3.4817-1.8253.5188-3.6169,1.1572-5.42,1.7531-1.5875.5246-3.21.9458-2.3214,3.3112.82,2.1822,2.1314,1.4713,3.5649.8691a22.593,22.593,0,0,0,2.7-.89c4.1616-2.4377,6.6275-1.2485,8.7178,3.0485,1.141,2.3456,1.6034,3.6971-.5487,5.45-1.568,1.2772-2.83,2.9226-4.2954,4.3347-1.145,1.1035-1.5565,1.9641-.1366,3.3037,1.39,1.3116,2.2882,1.0082,3.3276-.2488.4311-.5214.9577-.963,1.429-1.4523,4.82-5.0048,4.7182-4.8631,10.1392-1.0215,2.1566,1.5283,2.2716,3.0085,1.493,5.1391-.79,2.1621-1.3978,4.39-2.151,6.5667-.4466,1.29-.1017,2.0588,1.2208,2.4342,1.2526.3556,2.4354.6165,2.9418-1.0562.0393-.13.0517-.2686.0991-.3948,1.0256-2.7364.8413-6.9662,3.3438-7.8052,2.2923-.7686,5.5315,1.4668,8.4034,2.1764,1.9041.4705,2.7482,1.3649,2.6086,3.3858-.15,2.1632.0071,4.3457-.0436,6.5181-.0329,1.4092.2249,2.2819,1.9694,2.2921,1.7425.01,2.3291-.5595,2.4079-2.328.13-2.9138-1.4316-6.9179.7651-8.4441,1.9992-1.389,5.7554-.2475,8.7371-.2311,2.4469.0135,4.8977-.0746,7.34.034a21.6151,21.6151,0,0,1,20.3592,16.9453c.569,2.3753-.0271,3.0958-2.4791,3.09-22.9737-.0557-45.9533.2741-68.9184-.1691-7.7981-.15-15.4387-2.7629-23.0685-4.6491.0272-4.88-.0024-9.7613.0925-14.64.4-20.544-17.9443-36.3628-38.3765-34.0118-3.5224.4053-6.8114,1.8047-10.3593,1.8707q.0083-8.1437.0162-16.2867c11.376-.0683,22.7526-.0838,34.1277-.2237A16.4045,16.4045,0,0,0,79.8039,48.32Z" transform="translate(-24.7746 -43.4799)"/><path class="cls-4" d="M29.2743,79.32c3.5479-.066,6.8369-1.4654,10.3593-1.8707C60.0658,75.0978,78.41,90.9166,78.01,111.4606c-.0949,4.8787-.0653,9.76-.0925,14.64-14.6546-.0778-29.3111-.2907-43.9639-.1415-3.7632.0383-4.7677-1.0268-4.7151-4.7379C29.4366,107.2566,29.2912,93.2872,29.2743,79.32Z" transform="translate(-24.7746 -43.4799)"/><path class="cls-5" d="M135.2062,140.5935c-5.7091-.0007-11.4369-.2983-17.1237.0585-13.73.8615-27.026-1.5036-40.2565-4.7094a20.9429,20.9429,0,0,0-4.8412-.4334q-19.9818-.049-39.9639-.0195c-1.8688,0-3.8311.4786-3.7742-2.6664.0545-3.0169,2.03-2.3266,3.64-2.33,13.729-.031,27.4608-.172,41.1862.0545,7.0834.1169,13.85,2.546,20.7706,3.8705a50.496,50.496,0,0,0,9.6814,1.0921q32.4193-.0847,64.8389-.0368c1.3731.0023,3.4056-.9422,3.5977,1.8863.1644,2.42-.49,3.32-3.0932,3.291C158.3154,140.52,146.76,140.5942,135.2062,140.5935Z" transform="translate(-24.7746 -43.4799)"/><path class="cls-4" d="M79.8039,48.32A16.4045,16.4045,0,0,1,63.4182,62.8091c-11.3751.14-22.7517.1554-34.1277.2237-.0335-3.9389.0294-7.8811-.1384-11.8135-.0948-2.2231.5351-3.1573,2.93-3.1361C47.9888,48.2243,63.8965,48.254,79.8039,48.32Z" transform="translate(-24.7746 -43.4799)"/><path class="cls-5" d="M73.6282,146.57a22.5682,22.5682,0,0,1-.0172,2.4423c-.1849,1.657.5717,3.99-1.7174,4.487-2.2348.4847-2.2016-1.69-2.743-3.2125-.9723-2.735-3.4565-1.3566-5.303-1.5988-1.7334-.2273-3.3456.1-3.5826,2.3007-.1419,1.317-.4756,2.5194-2.022,2.5778-1.5634.0591-1.9932-1.0945-2.1306-2.4342-.3207-3.1265-2.75-2.4135-4.67-2.4534-1.9723-.041-4.31-.5392-4.5378,2.5871-.0862,1.184-.6018,2.1946-1.8788,2.3-1.563.13-2.015-.9464-2.1866-2.3261-.3633-2.92-2.6135-2.598-4.6589-2.5888-2.1666.01-4.56-.4151-4.7457,2.8963-.0681,1.2122-.714,2.1093-2.0582,2.0288-1.5363-.0921-1.9725-1.2077-2.0471-2.5462-.0075-.1355.0028-.2723-.01-.4071-1.016-10.8261-1.0161-10.8261,9.7291-10.8261,9.9188,0,19.8434.1956,29.7535-.0977,3.8777-.1148,5.59.8221,4.8445,4.8368A11.4529,11.4529,0,0,0,73.6282,146.57Z" transform="translate(-24.7746 -43.4799)"/><path class="cls-5" d="M137.2334,145.0787c10.73,0,21.46-.0238,32.19.0333,1.2025.0063,3.123-.7407,3.3472,1.2246.2539,2.2246,1.0244,4.8355-.6232,6.6674-1.32,1.4677-3.0575.5237-3.193-1.29-.2716-3.634-2.7744-3-5.0169-3.0591-2.2159-.0582-4.5-.2993-4.7049,2.9525a1.9144,1.9144,0,0,1-2.1247,1.981,1.8933,1.8933,0,0,1-1.8492-1.8543c-.25-3.85-3.0707-2.9753-5.4035-3.088-2.214-.1069-4.1275.0571-4.217,3.0022a1.8581,1.8581,0,0,1-2.1437,1.9279,1.7814,1.7814,0,0,1-1.7615-1.8779c-.1173-3.231-2.3888-3.0705-4.6391-3.0552-2.1878.0149-4.5388-.3476-4.8546,2.8483-.1183,1.1984-.6564,2.119-2.0166,2.0812a2.0535,2.0535,0,0,1-2.0072-2.16c-.2846-3.3312-2.7373-2.7323-4.8482-2.7567-2.05-.0237-4.2616-.31-4.4369,2.7538-.0682,1.1921-.645,2.1281-1.9673,2.1722a1.8812,1.8812,0,0,1-2.0393-2.0466c-.1411-3.37-2.6083-2.8842-4.7338-2.8663-1.95.0165-4.31-.5858-4.5015,2.6031-.0817,1.36-.7681,2.4052-2.2894,2.2791-1.6293-.135-1.65-1.4595-1.7612-2.7228-.5023-5.6865-.4731-5.7454,5.035-5.7486Q121.9532,145.0715,137.2334,145.0787Z" transform="translate(-24.7746 -43.4799)"/></g></svg>