<svg id="map" xmlns="http://www.w3.org/2000/svg" viewBox="0 0 142.4511 142.4465"><defs><style>.cls-1{fill:#fdffff;}.cls-2{fill:#262728;}.cls-3{fill:#fbfbfb;}.cls-4{fill:#f4f6f7;}.cls-5{fill:#55bdc5;}.cls-6{fill:#f4f3f3;}</style></defs><g id="dmhEkv.tif"><path class="cls-1" d="M168.8664,48.9339c.1463-12.2533-4.2279-16.5978-13.7729-16.491-8.29.0927-15.5585,3.4815-22.6624,7.2029-16.938,8.873-31.6415,20.7985-45.3225,34.0013-2.6671,2.5739-4.0951,2.44-6.4526-.1483-3.9413-4.3275-8.1615-8.4122-12.4188-12.4356-1.7815-1.6836-2.315-3.1845-1.4108-5.5829,1.6855-4.471.4408-8.549-2.7773-11.904-4.6946-4.8943-9.5942-9.5914-14.3245-14.4522-2.0182-2.0738-3.7335-2.2558-5.82-.0583-3.5019,3.6885-7.091,7.3023-10.7882,10.7943-2.3888,2.2563-2.0719,4.0265.1616,6.1678,4.6739,4.481,9.2081,9.1084,13.7716,13.7034,2.5167,2.534,5.7454,4.7608,9.0317,3.6007,6.5643-2.3173,9.7662,1.721,13.4091,5.5914a90.2158,90.2158,0,0,0,7.5661,7.4685c2.9621,2.4815,3.1679,4.1013.2185,7.1538-13.2133,13.675-25.0133,28.4829-33.88,45.4237-3.5093,6.7054-6.6992,13.5954-7.1161,21.2983-.5813,10.7391,5.875,16.37,16.5513,14.7016a59.6733,59.6733,0,0,0,17.4264-5.8951c18.1243-9.039,33.647-21.6276,48.1524-35.5441,2.2663-2.1743,3.5181-2.5086,5.75-.0583,4.0447,4.441,8.387,8.6174,12.71,12.7954,1.6736,1.6173,2.5545,2.8793,1.5445,5.516-1.6613,4.3366-.6062,8.5665,2.7,11.9537,4.8461,4.9639,9.8571,9.7671,14.6916,14.7419,1.9737,2.0311,3.544,1.8824,5.4293-.0724q5.4573-5.6583,11.127-11.11c1.9655-1.8833,2.12-3.4825.1166-5.4371-4.9652-4.8453-9.7567-9.8709-14.785-14.6485-3.3478-3.1808-7.4484-4.54-11.9034-2.6987-2.4675,1.02-3.8692.2839-5.5134-1.4392-4.0437-4.2377-8.1232-8.46-12.4481-12.4036-2.5865-2.3585-2.6864-3.8348-.1381-6.4678,13.0136-13.4461,24.628-28.0061,33.5415-44.5429C165.1856,62.3241,168.6777,54.7705,168.8664,48.9339Z" transform="translate(-31.4594 -27.492)"/><path class="cls-2" d="M168.8664,48.9339c-.1887,5.8366-3.6808,13.39-7.634,20.7245-8.9135,16.5368-20.5279,31.0968-33.5415,44.5429-2.5483,2.633-2.4484,4.1093.1381,6.4678,4.3249,3.9437,8.4044,8.1659,12.4481,12.4036,1.6442,1.7231,3.0459,2.4588,5.5134,1.4392,4.455-1.8409,8.5556-.4821,11.9034,2.6987,5.0283,4.7776,9.82,9.8032,14.785,14.6485,2.003,1.9546,1.8489,3.5538-.1166,5.4371q-5.6762,5.4384-11.127,11.11c-1.8853,1.9548-3.4556,2.1035-5.4293.0724-4.8345-4.9748-9.8455-9.778-14.6916-14.7419-3.3067-3.3872-4.3618-7.6171-2.7-11.9537,1.01-2.6367.1291-3.8987-1.5445-5.516-4.3233-4.178-8.6656-8.3544-12.71-12.7954-2.2315-2.45-3.4833-2.116-5.75.0583-14.5054,13.9165-30.0281,26.5051-48.1524,35.5441a59.6733,59.6733,0,0,1-17.4264,5.8951c-10.6763,1.6684-17.1326-3.9625-16.5513-14.7016.4169-7.7029,3.6068-14.5929,7.1161-21.2983,8.8664-16.9408,20.6664-31.7487,33.88-45.4237,2.9494-3.0525,2.7436-4.6723-.2185-7.1538a90.2158,90.2158,0,0,1-7.5661-7.4685c-3.6429-3.87-6.8448-7.9087-13.4091-5.5914-3.2863,1.16-6.515-1.0667-9.0317-3.6007-4.5635-4.595-9.0977-9.2224-13.7716-13.7034-2.2335-2.1413-2.55-3.9115-.1616-6.1678,3.6972-3.492,7.2863-7.1058,10.7882-10.7943,2.0863-2.1975,3.8016-2.0155,5.82.0583,4.73,4.8608,9.63,9.5579,14.3245,14.4522,3.2181,3.355,4.4628,7.433,2.7773,11.904-.9042,2.3984-.3707,3.8993,1.4108,5.5829,4.2573,4.0234,8.4775,8.1081,12.4188,12.4356,2.3575,2.5885,3.7855,2.7222,6.4526.1483,13.681-13.2028,28.3845-25.1283,45.3225-34.0013,7.1039-3.7214,14.3722-7.11,22.6624-7.2029C164.6385,32.3361,169.0127,36.6806,168.8664,48.9339ZM72.6118,95.8014,71.3405,97.308a12.5149,12.5149,0,0,0-3.5487,4.1765l-.6993.7585c-10.4753,12.5875-19.9,25.8329-24.9064,41.653-1.5228,4.8116-3.2471,10.281,1.0588,14.36,4.2222,4,9.6021,2.24,14.4632.7435,11.6064-3.5736,21.74-9.9157,31.3644-17.1527l.8453-.715a13.6749,13.6749,0,0,0,4.7407-3.579l1.1558-.93c7.4275-5.04,13.7911-11.319,20.3528-17.3754,2.23-2.0582.8525-3.06-.8517-4.1471l-1.14-1.122-.7081-.74-1.9227-1.9419C104.6051,103.9785,97.5737,96.7521,90.1,89.976c-1.3261-1.1591-1.8443-3.1132-3.6966-3.7543-1.2946-2.2271-2.6744-3.1686-4.7286-.6588-2.0814,2.5432-4.3448,4.9376-6.5284,7.3972A5.8647,5.8647,0,0,0,72.6118,95.8014Zm20.7966-9.896c7.0872,7.198,13.929,14.6453,21.5948,21.2557.8786,2.0724,2.9133,3.14,4.2118,4.841,1.5821,2.0729,2.8258,1.4968,4.4052-.1591a258.0852,258.0852,0,0,0,26.62-32.5381c1.5518-2.273,1.3111-3.5665-.5887-5.4142-7.407-7.2038-14.7448-14.4849-21.9022-21.9351-2.196-2.2859-3.7536-2.1294-6.17-.4571A257.0279,257.0279,0,0,0,93.1007,74.3427C86.8527,80.1316,86.8636,80.1433,93.4084,85.9054Zm70.824-37.8763c.1014-8.6071-3.3473-11.7752-10.0724-11.0238-8.2692.9239-15.5238,4.6069-22.7113,8.4663-1.9058,1.0233-1.85,1.8679-.32,3.3684,7.2452,7.1051,14.3831,14.32,21.5419,21.5128,1.1176,1.123,2.0421,1.8429,3.0853-.1207C159.795,62.629,163.8878,55.0555,164.2324,48.0291Zm-21.7167,97.5722a6.8212,6.8212,0,0,0,2.3237,5.1914c2.0395,2.0817,4.12,4.1228,6.1846,6.18,7.9265,7.9015,7.9263,7.9011,15.363-.3466a7.252,7.252,0,0,1,.6594-.6407c.99-.8513,1.1446-1.73.15-2.7009-4.6066-4.4984-9.109-9.11-13.8563-13.4546a5.8428,5.8428,0,0,0-6.9189-.5937A6.576,6.576,0,0,0,142.5157,145.6013ZM62.8241,52.0165a7.8339,7.8339,0,0,0-2.4294-5.4406Q57.28,43.4769,54.19,40.3531c-8.2412-8.3024-8.4148-8.2713-15.82.9544-.9164,1.1417-1.3254,1.8205-.0831,3.0246,4.4271,4.2913,8.6436,8.8048,13.1618,12.9949a6.3623,6.3623,0,0,0,7.3658.8559A6.8707,6.8707,0,0,0,62.8241,52.0165Z" transform="translate(-31.4594 -27.492)"/><path class="cls-3" d="M67.7918,101.4845a12.5149,12.5149,0,0,1,3.5487-4.1765c-.3048,3.11.43,5.636,3.7633,6.7045l-.8669,1.0354c-1.4525.0861-1.892.9252-1.6751,2.2523l-.4627,1.4371c-1.2051.2728-1.9642.7-.6424,1.85l-.3352,2.78c-2.3236,1.2713-2.3443,2.51.0531,3.7134l.2762,1.8584c-1.3234,1.1675-.531,1.58.66,1.8492l.4414,1.4628c-.2094,1.2893.2228,2.1162,1.62,2.2479a7.1179,7.1179,0,0,1,2.8549,2.7522c.08,1.4352.8934,1.9076,2.2277,1.6961a30.6082,30.6082,0,0,0,10.7412,1.1083c4.8712.4619,8.2562-1.7677,10.1006-6.653a24.1887,24.1887,0,0,1,5.4962-5.4628c1.3176.0509,1.9741-.5589,1.8991-1.9l-.0247.0193c2.8593.8874,3.4036-3.1473,5.9993-2.82l.708.74a1.2741,1.2741,0,0,0,1.14,1.1221c1.7042,1.0873,3.0817,2.0889.8517,4.1471-6.5617,6.0564-12.9253,12.3355-20.3527,17.3753l-1.1559.93a13.6734,13.6734,0,0,1-4.7407,3.5789l-.8453.7151c-9.6243,7.237-19.758,13.5791-31.3644,17.1527-4.8611,1.4966-10.241,3.2567-14.4632-.7435-4.3059-4.0794-2.5816-9.5488-1.0588-14.36,5.0069-15.82,14.4311-29.0655,24.9064-41.653Z" transform="translate(-31.4594 -27.492)"/><path class="cls-4" d="M93.4084,85.9054c-6.5448-5.7621-6.5557-5.7738-.3077-11.5627a257.0279,257.0279,0,0,1,28.4784-22.8442c2.4166-1.6723,3.9742-1.8288,6.17.4571,7.1574,7.45,14.4952,14.7313,21.9022,21.9351,1.9,1.8477,2.1405,3.1412.5887,5.4142a258.0852,258.0852,0,0,1-26.62,32.5381c-1.5794,1.6559-2.8231,2.232-4.4052.1591-1.2985-1.7013-3.3332-2.7686-4.2124-4.8435a83.59,83.59,0,0,0,17.366-17.67,8.4148,8.4148,0,0,0,1.2177-3.9119c.9686-7.8121-1.8718-13.56-8.0739-16.5912-6.4348-3.1445-12.7773-1.8822-18.5276,3.7021Q100.1885,79.2883,93.4084,85.9054Z" transform="translate(-31.4594 -27.492)"/><path class="cls-5" d="M93.4084,85.9054q6.7876-6.6093,13.5764-13.2173c5.75-5.5843,12.0928-6.8466,18.5276-3.7021,6.2021,3.0308,9.0425,8.7791,8.0739,16.5912a8.4148,8.4148,0,0,1-1.2177,3.9119,83.59,83.59,0,0,1-17.366,17.67C107.3374,100.5507,100.4956,93.1034,93.4084,85.9054Z" transform="translate(-31.4594 -27.492)"/><path class="cls-5" d="M71.4508,118.939q-.1382-.9292-.2753-1.8582-.026-1.8567-.054-3.7136.1676-1.39.3352-2.78a1.6069,1.6069,0,0,0,.6424-1.85q.2313-.7185.4622-1.44a2.4946,2.4946,0,0,0,1.6756-2.25q.4335-.5178.8672-1.0351a24.9466,24.9466,0,0,0,6.5113-6.48,12.0975,12.0975,0,0,0,4.5738-4.5568l.984-.996,2.9254-2.0077c7.4751,6.78,14.5065,14.0067,21.4439,21.3248-1.2181,1.7081-3.58,2.4373-4.0746,4.7628l.0252-.0186a2.1789,2.1789,0,0,0-1.9,1.8989,24.1677,24.1677,0,0,0-5.4958,5.4635c-3.4648,2.0691-6.1037,5.3917-10.101,6.6523a30.64,30.64,0,0,1-10.7435-1.1077,2.5074,2.5074,0,0,0-2.2254-1.6967,7.119,7.119,0,0,0-2.8546-2.7522,2.3678,2.3678,0,0,0-1.62-2.2479q-.2206-.7314-.44-1.4627A1.6515,1.6515,0,0,0,71.4508,118.939Z" transform="translate(-31.4594 -27.492)"/><path class="cls-3" d="M164.2324,48.0291c-.3446,7.0264-4.4374,14.6-8.4765,22.203-1.0432,1.9636-1.9677,1.2437-3.0853.1207-7.1588-7.193-14.2967-14.4077-21.5419-21.5128-1.53-1.5005-1.5858-2.3451.32-3.3684,7.1875-3.8594,14.4421-7.5424,22.7113-8.4663C160.8851,36.2539,164.3338,39.422,164.2324,48.0291Z" transform="translate(-31.4594 -27.492)"/><path class="cls-6" d="M142.5157,145.6013a6.576,6.576,0,0,1,3.9057-6.3647,5.8428,5.8428,0,0,1,6.9189.5937c4.7473,4.3444,9.25,8.9562,13.8563,13.4546.9944.9711.84,1.85-.15,2.7009a7.252,7.252,0,0,0-.6594.6407c-7.4367,8.2477-7.4365,8.2481-15.363.3466-2.0641-2.0576-4.1451-4.0987-6.1846-6.18A6.8212,6.8212,0,0,1,142.5157,145.6013Z" transform="translate(-31.4594 -27.492)"/><path class="cls-6" d="M62.8241,52.0165a6.8707,6.8707,0,0,1-4.01,6.1664,6.3623,6.3623,0,0,1-7.3658-.8559c-4.5182-4.19-8.7347-8.7036-13.1618-12.9949-1.2423-1.2041-.8333-1.8829.0831-3.0246,7.4049-9.2257,7.5785-9.2568,15.82-.9544q3.0954,3.1184,6.2049,6.2228A7.8339,7.8339,0,0,1,62.8241,52.0165Z" transform="translate(-31.4594 -27.492)"/><path class="cls-1" d="M81.6154,97.5323a24.9466,24.9466,0,0,1-6.5113,6.48c-3.3338-1.0688-4.0684-3.5952-3.7636-6.7048l1.2713-1.5066c2.0912.1642,2.7505-.9483,2.5345-2.8413,2.1836-2.46,4.447-4.854,6.5284-7.3972,2.0542-2.51,3.434-1.5683,4.7285.6588l.77,5.7578q-.492.498-.9836.9961Q81.6556,92.9989,81.6154,97.5323Z" transform="translate(-31.4594 -27.492)"/><path class="cls-6" d="M107.4679,116.0594c.4942-2.3255,2.8565-3.0547,4.0746-4.7628q.9643.9719,1.9247,1.9425C110.8715,112.9121,110.3272,116.9468,107.4679,116.0594Z" transform="translate(-31.4594 -27.492)"/><path class="cls-6" d="M87.1732,91.98l-.77-5.7578c1.8524.6411,2.3706,2.5952,3.696,3.7522Q88.6355,90.9746,87.1732,91.98Z" transform="translate(-31.4594 -27.492)"/><path class="cls-6" d="M75.1463,92.96c.216,1.893-.4433,3.0055-2.5345,2.8413A5.8647,5.8647,0,0,1,75.1463,92.96Z" transform="translate(-31.4594 -27.492)"/><path class="cls-6" d="M67.7918,101.4845l-.6993.7585Z" transform="translate(-31.4594 -27.492)"/><path class="cls-6" d="M115.3154,115.1011a1.2741,1.2741,0,0,1-1.14-1.1221Z" transform="translate(-31.4594 -27.492)"/><path class="cls-6" d="M94.6585,137.5532l1.1559-.93Z" transform="translate(-31.4594 -27.492)"/><path class="cls-6" d="M89.0725,141.8472l.8453-.7151Z" transform="translate(-31.4594 -27.492)"/><path class="cls-6" d="M89.9967,130.0555c3.9973-1.2606,6.6362-4.5832,10.101-6.6523C98.2529,128.2878,94.8679,130.5174,89.9967,130.0555Z" transform="translate(-31.4594 -27.492)"/><path class="cls-6" d="M71.1215,113.3672q.0274,1.8568.054,3.7136C68.7772,115.8768,68.7979,114.6385,71.1215,113.3672Z" transform="translate(-31.4594 -27.492)"/><path class="cls-6" d="M74.2369,105.0479a2.4946,2.4946,0,0,1-1.6756,2.25C72.3449,105.9731,72.7844,105.134,74.2369,105.0479Z" transform="translate(-31.4594 -27.492)"/><path class="cls-6" d="M72.0991,108.7373a1.6069,1.6069,0,0,1-.6424,1.85C70.1349,109.4377,70.894,109.01,72.0991,108.7373Z" transform="translate(-31.4594 -27.492)"/><path class="cls-6" d="M105.5935,117.94a2.1789,2.1789,0,0,1,1.9-1.8989C107.5676,117.3808,106.9111,117.9906,105.5935,117.94Z" transform="translate(-31.4594 -27.492)"/><path class="cls-6" d="M71.4508,118.939a1.6515,1.6515,0,0,1,.6619,1.8493C70.92,120.5186,70.1274,120.1065,71.4508,118.939Z" transform="translate(-31.4594 -27.492)"/><path class="cls-6" d="M72.5527,122.251a2.3678,2.3678,0,0,1,1.62,2.2479C72.7755,124.3672,72.3433,123.54,72.5527,122.251Z" transform="translate(-31.4594 -27.492)"/><path class="cls-6" d="M77.0278,127.2511a2.5074,2.5074,0,0,1,2.2254,1.6967C77.9212,129.1587,77.1079,128.6863,77.0278,127.2511Z" transform="translate(-31.4594 -27.492)"/><path class="cls-6" d="M81.6154,97.5323q.0432-4.53,4.5742-4.5567A12.1018,12.1018,0,0,1,81.6154,97.5323Z" transform="translate(-31.4594 -27.492)"/></g></svg>