<svg xmlns="http://www.w3.org/2000/svg" viewBox="0 0 200 205"><defs><style>.cls-1{isolation:isolate;}.cls-2{opacity:0.3;mix-blend-mode:multiply;}.cls-3{fill:#fff;}.cls-4{fill:#bebfbf;}.cls-5{fill:#fdfdfd;}.cls-6{fill:#e6cdab;}.cls-7{fill:#a68f81;}.cls-8{fill:#fbe4be;}.cls-9{fill:#fae4bd;}</style></defs><g class="cls-1"><g id="map"><g class="cls-2"><circle cx="100" cy="105" r="99"/><path d="M100,7A98,98,0,1,1,2,105,98.111,98.111,0,0,1,100,7m0-2A100,100,0,1,0,200,105,100,100,0,0,0,100,5Z" transform="translate(0 0)"/></g><circle class="cls-3" cx="100" cy="100" r="99"/><path class="cls-4" d="M100,2A98,98,0,1,1,2,100,98.111,98.111,0,0,1,100,2m0-2A100,100,0,1,0,200,100,100,100,0,0,0,100,0Z" transform="translate(0 0)"/><g id="utaceR.tif"><path class="cls-5" d="M102.4889,55.2733l-.29-.1685c-.1255-10.3946-4.2481-12.81-17.4343-10.8212-12.8292,1.9351-25.6867,3.7386-38.5786,5.1852-8.0148.8994-12.5126,4.1341-11.038,12.8288q-.171,23.6663-.34,47.3325c-3.6771,9.8458-.4657,20.1314-1.9332,30.1183-6.4546,1.1512-4.6406,6.1761-4.4179,10.0682.2618,4.5744,4.3728,3.91,7.0052,3.4706,13.4711-2.2491,28.23,5.8437,40.6417-4.9524a1.891,1.891,0,0,1,1.7535.02c7.63,5.0687,16.2579,2.0105,24.1292,3.2943,8.7168,1.4217,17.1281-.4193,25.6982.32,10.8409.9348,22.1446-.7015,33.3038.662,4.3341.53,8.7318-.6892,10.2341-5.594,1.1025-3.5991.2177-6.6771-4.3691-7.1594-1.6851-3.65-1.7587-7.5576-2.1961-11.48-2.27-20.3569-24.2509-37.5286-45.89-23.04-6.5854,4.4093-9.6717,2.9511-10.63-4.985-1.5347-12.7163-2.9608-25.4456-4.4329-38.1694l-.0145-1.8.0084-3.6311Z" transform="translate(0 0)"/><path class="cls-6" d="M103.7048,62.2033c1.4721,12.7238,2.8982,25.4531,4.4329,38.1694.9579,7.9361,4.0442,9.3943,10.63,4.985,21.64-14.4889,43.62,2.6828,45.8905,23.04.4374,3.9222.511,7.8293,2.1967,11.4819-36.7162.7752-73.4327.9647-110.1488-.042,3.1918-10.2755-3.8779-24.055-14.135-26.2775a15.7936,15.7936,0,0,1-7.7643-3.93q.1711-23.6663.34-47.3333c4.51-.228,9.0507-.2081,13.529-.726,17.8519-2.0643,35.6844-4.2962,53.524-6.4661l.29.165q.6051.7473,1.2094,1.5019c-.0028,1.21-.0056,2.4207-.0023,3.629-.1453.1844-.445.3946-.42.5528A7.0062,7.0062,0,0,0,103.7048,62.2033Z" transform="translate(0 0)"/><path class="cls-7" d="M56.7057,139.8373c36.7161,1.0067,73.4326.8172,110.1488.042,4.5862.48,5.471,3.5582,4.3685,7.1573-1.5023,4.9048-5.9,6.1236-10.2341,5.594-11.1592-1.3635-22.4629.2728-33.3038-.662-8.57-.7391-16.9814,1.1019-25.6982-.32-7.8713-1.2838-16.5,1.7744-24.1292-3.2943a1.891,1.891,0,0,0-1.7535-.02c-12.4121,10.7961-27.1706,2.7033-40.6417,4.9524-2.6324.4395-6.7434,1.1038-7.0052-3.4706-.2227-3.8921-2.0367-8.917,4.4175-10.0664A112.0614,112.0614,0,0,0,56.7057,139.8373Z" transform="translate(0 0)"/><path class="cls-8" d="M102.1994,55.1048c-17.84,2.17-35.6721,4.4018-53.524,6.4661-4.4783.5179-9.0191.498-13.529.726-1.4725-8.694,3.0253-11.9287,11.04-12.8281,12.8919-1.4466,25.7494-3.25,38.5786-5.1852C97.9513,42.2946,102.0739,44.71,102.1994,55.1048Z" transform="translate(0 0)"/><path class="cls-9" d="M56.7057,139.8373a112.0614,112.0614,0,0,1-23.8309-.0871c1.4679-9.9887-1.7435-20.2743,1.9326-30.12a15.7861,15.7861,0,0,0,7.7633,3.93C52.8278,115.7823,59.8975,129.5618,56.7057,139.8373Z" transform="translate(0 0)"/><path class="cls-8" d="M103.6987,56.7717q-.6045-.7527-1.2094-1.5019Q103.0937,56.0243,103.6987,56.7717Z" transform="translate(0 0)"/><path class="cls-8" d="M103.7048,62.2033a7.0062,7.0062,0,0,1-.428-1.25c-.0254-.1582.2743-.3684.42-.5528C103.6951,61.003,103.7,61.6032,103.7048,62.2033Z" transform="translate(0 0)"/></g></g></g></svg>