<svg id="map" xmlns="http://www.w3.org/2000/svg" viewBox="0 0 200 200"><defs><style>.cls-1,.cls-6{fill:#fff;}.cls-2{fill:#31ccfd;}.cls-3{fill:#e6e6e6;}.cls-4{fill:#525353;}.cls-5{fill:#242526;}.cls-6{stroke:#000;stroke-linecap:round;stroke-miterlimit:10;stroke-width:4px;}</style></defs><circle class="cls-1" cx="100" cy="100" r="98"/><path class="cls-2" d="M100,4A96,96,0,1,1,4,100,96.1087,96.1087,0,0,1,100,4m0-4A100,100,0,1,0,200,100,100,100,0,0,0,100,0Z" transform="translate(0 0)"/><g id="ZftZq8.tif"><path class="cls-2" d="M101.7,145.0934c-.1968.0058-2.5512.1428-2.741.1973-1.39-1.0966-6.2181-.6495-7.5333.1632-.978.6043-2.1972.4646-3.9669.11-1.7227-.3449-2.5843-1.3226-2.8989-.11,0,0-1.3775-2.2794-2.0979-.5718-.8752,2.0743.24-2.8786-.3285-3.0115l-1.0815-6.2219c1.7378-2.1316,2.7513-11.6611,2.44-14.11-.2893-2.2752.9735-.8386.1782-2.3184.7878-.69,1.4763-1.4672,2.6554-1.3669,1.7791-.3055,3.9492-1.33,5.7278-1.6357,6.0451-1.4863,15.806-6.1391,14.668-3.9479a146.21,146.21,0,0,1-2.117,18.1373c-.92,3.3983-2.723,3.5362.7507,2.918.6444-.1148-3.0763.81-2.4228.7463.0409,1.0294.9678,2.9428,1.0086,3.9722C104.4035,140.5022,101.7488,143.6613,101.7,145.0934Z" transform="translate(0 0)"/><path class="cls-2" d="M73.342,141.7834c-1.0369-4.8774-4.7939-7.5581-10.7965-7.58-1.3233-1.1066-.8436-2.634-.9113-4.02-.1137-2.3265.3223-4.7088-.7573-6.9287-2.9508.1093-5.9108.1116-8.8482.37-1.5707.138-4.4431-1.1373-3.98,2.1354.3442,2.4323-2.43,6.22,3.15,6.9106,6.2889.7785,10.096,7.444,7.93,12.5949q1.2539.15,2.5073.2992.4279-.147.8565-.2915,4.0312.0519,8.0626.1044C73.0854,145.4133,73.8521,144.1828,73.342,141.7834Z" transform="translate(0 0)"/><path class="cls-3" d="M128.37,48.6232c2.1506-.2062,6.7857,4.5705,6.8086,6.6385a3.381,3.381,0,0,1-3.3015,3.7626c-3.0766.27-4.3844-1.5-4.3819-4.339C127.497,52.571,127.02,50.297,128.37,48.6232Z" transform="translate(0 0)"/><path class="cls-4" d="M59.8611,119.3222l1.0383-.143Z" transform="translate(0 0)"/><path class="cls-5" d="M183.1847,64.8637c-.5788-2.08-1.68-3.219-3.9132-3.3236-3.3631-.1575-6.7387-.7867-10.0753-.6035-5.33.2928-9.3253-1.8344-12.6954-5.6784a9.5372,9.5372,0,0,0-7.2493-3.0154c-6.0537-.1887-11.5847-.2261-16.3153-5.7994-3.9077-4.604-8.5234-2.2852-9.3653,3.8022a39.6787,39.6787,0,0,0-.2138,4.4254c-.0275,1.0868.082,2.1788-1.354,2.5361-6.3408,1.5775-12.4828,4.4064-19.3217,2.3442-3.8538-1.1621-7.8261-1.9457-11.7649-2.8092-4.0616-.89-7.99-.7344-11.6858,1.542-2.2876,1.4089-4.7708,2.5-7.0671,3.896a10.4746,10.4746,0,0,1-8.8849,1.0269c-5.55-1.6008-11.1785-2.9351-16.7842-4.3412-9.2033-2.3086-17.7214,1.2224-22.2528,9.5936-2.55,4.7116-4.5118,9.7387-6.8134,14.5881a13.2032,13.2032,0,0,0-.4645,10.1656c3.5049,10.8754,6.7872,21.77,6.98,33.3875.0772,4.6561,1.0511,9.0963-1.5311,13.6024-1.8308,3.1945-.4521,5.2016,2.7682,5.2068,11.3161.0181,22.6324-.0866,33.9485-.1448,2.166-5.1509-1.6411-11.8164-7.93-12.5949-5.58-.6906-2.8062-4.4783-3.15-6.9106-.4632-3.2727,2.4092-1.9974,3.98-2.1354,2.9374-.2582,5.8974-.26,8.8482-.37q.7962-.3484,1.5922-.6957v0c4.8382.5089,9.4031-1.4448,14.1716-1.5683.0308-.0819.0555-.1654.0826-.2482,3.7181-.91,25.5734-7.28,28.8929-8.09a4.5285,4.5285,0,0,1-.9936,3.6916q-.1118,1.2043-.2236,2.4087c1.5559,1.62.3191,2.7573-.6823,3.9349.0264,3.814.1447,7.634-.784,11.3829q.0609,1.5448.1224,3.0889l.8859.8838c-2.6123,1.7583-2.3268,4.4359-2.2408,7.05q4.9253.013,9.8486.0256c2.0714.14,7.4288-.0921,8.1089-.1589l.0021.019c3.066.0218,10.4325.3087,13.4917.4631,3.47.1751,4.1284-1.637,3.5522-4.5275-1.1021-5.53-5.88-8.6884-12.7068-8.3934-1.2487-.61-.733-1.49-.3856-2.371.8814-2.2347,3.1862-8.1244,4.0541-10.3649-.0246.0006-.039-.01-.0626-.01,1.51-3.0869,5.2036-12.0131,6.1365-13.5578l.001-.006a6.6292,6.6292,0,0,0,1.0578-2.4042c.6773-4.557,3.88-6.6253,7.4512-8.7141,3.0961-1.811,6.548-3.0721,9.2242-5.58l4.7511-1.8913c2.0146-1.08,4.2429-1.8921,6.0006-3.2933,4.0063-3.1935,10.8029-1.458,13.1643-7.5082.1158-.2965.9884-.3,1.51-.4367C183.11,74.7568,184.9685,71.276,183.1847,64.8637ZM128.37,48.6232c2.15-.2062,6.7856,4.5705,6.8085,6.6385a3.3809,3.3809,0,0,1-3.3014,3.7626c-3.0766.27-4.3845-1.5-4.382-4.3391C127.497,52.5711,127.02,50.297,128.37,48.6232ZM118.22,131.9865a4.3254,4.3254,0,0,0,.1157,4.4786,2.5747,2.5747,0,0,0,2.9561-.2256c.7091.0616,1.6.1189,2.73.17a21.2077,21.2077,0,0,1,3.2005.2135c2.1878.4694,4.7528,1.5889,4.527,3.792-.1926,1.8787-2.9272.6338-4.5116.883a53.1046,53.1046,0,0,1-5.5936-.1911l-.0021-.0178-.2909.0009c-.6271-.0354-1.1326-.06-1.3934-.0565-.0077.02-.01.04-.0176.0608-.8277.0025-7.9657-.5191-8.7935-.5165l-.0006.0007a4.7533,4.7533,0,0,0-1.7048-.0651c-.1089.243-.1541.5612-.3374.7167-1.1823,1.003.7075-.9371-1.2758-.1966-.525.1961-1.4089.65-1.4494.441-.3086-1.5924-1.8636.0111-.5727-1.8818a5.3534,5.3534,0,0,0,.4658-1.4939h0c1.1936-.8693.6166-2.1807.8269-3.2961.7559-4.011.1885-8.1983,1.6184-12.1194-1.0257-4.4744,2.0429-9.47-1.7276-13.6106a.8455.8455,0,0,1,.0772-.7484c2.9848-1.02,1.3422-4.2961,2.9405-5.973.4323-3.2192-.5915-6.6937,1.6852-9.59a3.0335,3.0335,0,0,1,1.785-2.3656q.4814-.7528.9628-1.5058a13.3025,13.3025,0,0,1,12.7962-.1018l1.6984,2.2283a5.1623,5.1623,0,0,1,2.3158,4.24,4.4224,4.4224,0,0,1,.505,3.2088,5.7985,5.7985,0,0,1-1.0416,4.1535q-.4565,1.2665-.9128,2.5328v0c-.49.8305-2.2709,4.7493-2.6526,5.3969a8.6006,8.6006,0,0,1-2.21,4.9244c-.2969,1.1736-.9571,2.5043-.886,3.5187C121.5517,122.58,119.3282,129.56,118.22,131.9865ZM176.536,72.3572c-2.797.4644-6.19.2936-6.655,4.4369-.0292.26-.8649.4861-1.354.6312-7.2844,2.1593-13.6957,6.12-20.2563,9.7724q-1.8114.6729-3.623,1.3455c-.6958,1.2712-2.0823,1.626-3.193,2.303-5.6231,3.4275-5.6408,3.3984-8.8233-2.6268l-1.0547-.3185h0c-5.6052-6.09-13.9811-6.4389-20.5909-.8582l-1.5242.9536c-3.5532,4.3566-3.6139,9.6769-3.9059,14.8575-.1434,2.5444-1.01,4.0471-3.5266,4.5084.1095.1588.2261.3156.3461.4714-3.7448,1.1925-21.4733,7.3889-24.861,8.2174a2.89,2.89,0,0,1-.3035-.1206c-4.6709,2.1737-9.9609,1.47-14.7351,3.1632v0l-.1742-.29.2456-.2336-1.6476.61-1.0383.1429H47.2036c7.2952-5.4217,11.9789-11.6915,14.4541-19.4783q-.3372-3.93-.6747-7.8608c-2.6373-7.2052-7.4476-12.06-15.13-13.5974-1.1666-.2335-3.0831-1.3123-3.6625.9367-.621,2.4107,1.0195,2.7229,2.9428,3.1493,10.6867,2.369,15.3872,12.9923,9.9343,22.4192-2.3046,3.9843-5.1436,7.6145-9.2168,9.9485-1.71.98-2.0243,2.2309-1.9985,3.9657.068,4.5724.1493,9.1513-.0249,13.7181-.1139,2.9842,1.016,4.211,3.9876,4.0012,3.3289-.2351,5.9429.9036,7.6909,4.5092H27.5213c2.0376-12.6327.57-25.1567-3.0923-37.286-4.962-16.4318-5.3111-16.3268,2.3455-31.4227,4.4344-8.7428,10.7841-11.5771,20.2633-9.0866,5.4565,1.4336,10.9165,2.8565,16.3939,4.2072,3.3754.8323,6.8721.8986,9.7251-1.2227C81.3132,60.158,89.9254,59.32,99.3328,62.87c7.6,2.8682,15.1077,1.2136,22.4573-1.367a5.651,5.651,0,0,1,5.5741.5255c4.1615,2.6728,8.879,1.1417,11.1227-3.4352a3.5611,3.5611,0,0,1,3.6234-2.3606c5.5959-.1657,10.9328-.2706,14.8965,4.9592,1.9659,2.5939,5.195,3.6259,8.6469,3.6552,3.3609.0286,6.7171.4249,10.0793.565,1.9615.0818,3.8182-.0035,3.9689,2.7606C179.8326,70.5666,179.0927,71.9327,176.536,72.3572Z" transform="translate(0 0)"/><path class="cls-1" d="M83.4921,114.5185c1.6273,1.94,4.7937-4.0264,6.3-1.8626l2.5949-.3442c4.4557-1.9877,9.1892-1.6891,10.94-3.8881,2.5163-.4613,2.0856-3.0254,2.229-5.57.292-5.1806.3527-10.5009,3.9059-14.8575h0l1.5241-.9536c6.61-5.5807,14.9858-5.2315,20.591.8583q.5273.159,1.0546.3184c3.1825,6.0252,3.2,6.0543,8.8233,2.6268,1.1107-.677,2.4972-1.0318,3.1927-2.3035q1.8118-.6718,3.6233-1.345c6.5606-3.6527,12.9719-7.6131,20.2563-9.7724.4891-.1451,1.3248-.3709,1.354-.6312.4646-4.1433,3.858-3.9725,6.655-4.4369,2.5567-.4245,3.2966-1.7906,3.1659-4.1844-.1507-2.7641-2.0074-2.6788-3.9689-2.7606-3.3622-.14-6.7184-.5364-10.0793-.565-3.4519-.0293-6.681-1.0613-8.6469-3.6552-3.9637-5.23-9.3006-5.1249-14.8965-4.9592a3.5611,3.5611,0,0,0-3.6234,2.3606c-2.2437,4.5769-6.9612,6.108-11.1227,3.4352a5.651,5.651,0,0,0-5.5741-.5255c-7.35,2.5806-14.8577,4.2352-22.4573,1.367-9.4074-3.55-18.02-2.7121-26.176,3.3527-2.853,2.1213-6.35,2.055-9.7251,1.2227-5.4774-1.3507-10.9374-2.7736-16.3939-4.2072-9.4792-2.4905-15.8289.3438-20.2633,9.0866-7.6566,15.0959-7.3075,14.9909-2.3455,31.4227,3.6628,12.1293,5.13,24.6533,3.0923,37.286H55.5062c-1.748-3.6056-4.362-4.7443-7.6909-4.5092-2.9716.21-4.1015-1.017-3.9876-4.0012.1742-4.5668.0929-9.1457.0249-13.7181-.0258-1.7348.2884-2.9858,1.9985-3.9657,4.0732-2.334,6.9122-5.9642,9.2168-9.9485,5.4529-9.4269.7524-20.05-9.9343-22.4192-1.9233-.4264-3.5638-.7386-2.9428-3.1493.5794-2.249,2.4959-1.17,3.6625-.9367,7.6821,1.5375,12.4924,6.3922,15.13,13.5974q.3375,3.93.6747,7.8608c-2.4752,7.7868-7.1589,14.0566-14.4541,19.4783H59.8611l1.0383-.143,1.6477-.61-.2457.2336.1742.29c4.7742-1.6932,10.0642-.9895,14.735-3.1631" transform="translate(0 0)"/><path class="cls-1" d="M107.7708,141.3653l-.006-4.9557c1.0687.062,18.4227-.0084,19.4571.2135,2.1878.4694,4.7528,1.589,4.527,3.792-.1926,1.8787-2.9273.6339-4.5115.883C126.19,141.4629,108.8423,141.3525,107.7708,141.3653Z" transform="translate(0 0)"/><path class="cls-1" d="M131.25,95.2574a5.16,5.16,0,0,0-2.316-4.24q-.8488-1.115-1.6983-2.2288a13.3023,13.3023,0,0,0-12.7961.1018q-.4813.753-.9628,1.5058a3.0335,3.0335,0,0,0-1.785,2.3656c-2.2767,2.8958-1.2529,6.37-1.6852,9.59-3.1938,2.0222-2.7822,23.1257-2.9029,25.4423-.0253.4852.191.706.5636.7549a52.5966,52.5966,0,0,1-.5692,6.2542c-.21,1.1154.3667,2.4268-.8269,3.2961a5.35,5.35,0,0,1-.4657,1.4939c-1.2909,1.8929.0352-.499.3438,1.0935.0405.2091,1.1533.5434,1.6783.3473,1.9833-.74.0935,1.2,1.2758.1966.1833-.1555.2285-.4737.3374-.7167,2.7774.571,2.7774.571,4.7187.9611,7.0215,1.411,2.5393-4.1212,4.1757-5.01a4.3254,4.3254,0,0,1-.1157-4.4786c1.04-2.2773,1.9027-4.6358,2.7941-6.9808a1.6575,1.6575,0,0,0,.5626-1.4685c-.1089-1.2107,1.43-4.754,2.4714-4.7536,1.0347,0,2.8625-5.1288,3.8445-7.0912,1.4486-2.8942.5088-3.2689,1.1543-4.4472q.8332-2.3128,1.667-4.6255a5.7991,5.7991,0,0,0,1.0417-4.1535A4.423,4.423,0,0,0,131.25,95.2574Z" transform="translate(0 0)"/></g><line class="cls-6" x1="18.6901" y1="145.265" x2="183.8298" y2="145.265"/></svg>