<svg xmlns="http://www.w3.org/2000/svg" viewBox="0 0 200 205"><defs><style>.cls-1{isolation:isolate;}.cls-2{opacity:0.3;mix-blend-mode:multiply;}.cls-3{fill:#fff;}.cls-4{fill:#bebfbf;}.cls-5{fill:#6584a4;}.cls-6{fill:#636363;}.cls-7{fill:#b69b81;}.cls-8{fill:#c4e2f2;}.cls-9{fill:#95c4ea;}</style></defs><g class="cls-1"><g id="map"><g class="cls-2"><circle cx="100" cy="105" r="99"/><path d="M100,7A98,98,0,1,1,2,105,98.111,98.111,0,0,1,100,7m0-2A100,100,0,1,0,200,105,100,100,0,0,0,100,5Z" transform="translate(0 0)"/></g><circle class="cls-3" cx="100" cy="100" r="99"/><path class="cls-4" d="M100,2A98,98,0,1,1,2,100,98.111,98.111,0,0,1,100,2m0-2A100,100,0,1,0,200,100,100,100,0,0,0,100,0Z" transform="translate(0 0)"/><g id="pOBzZH.tif"><path class="cls-5" d="M111.2754,80.5446c4.0563,16.92,8.0862,30.3986,10.8673,39.0374,21.0591-.9156,33.1243,5.68,33.1243,5.68L104.5005,48.26c.9759,5.3941,1.9939,10.6284,3.0434,15.6322C108.7623,69.7509,110.0254,75.318,111.2754,80.5446Z" transform="translate(0 0)"/><path class="cls-6" d="M113.1608,126.8658q-1.15-.271-2.3958-.5543l1.0163,11.196c.79.0963,1.58.191,2.3714.2906Z" transform="translate(0 0)"/><path class="cls-7" d="M114.1527,137.7981c-.7916-.1-1.5809-.1943-2.3714-.2906-31.8938-3.9119-62.2421-5.2585-86.4255-3.1126,4.8878,3.0224,10.7483,6.63,16.6059,10.2534,14.3114,8.8208,28.5431,17.594,28.5431,17.594a20.66,20.66,0,0,0,10.8707,3.0838h72.6726a32.123,32.123,0,0,0,17.8981-5.3351,11.9053,11.9053,0,0,0,5.52-10.13C155.0641,144.7806,136.7507,140.6533,114.1527,137.7981Z" transform="translate(0 0)"/><path class="cls-8" d="M125.7855,130.2887s-1.4243-3.8128-3.6428-10.7067c-2.7811-8.6388-6.811-22.1177-10.8673-39.0374-1.25-5.2266-2.5131-10.7937-3.7315-16.6527-1.0495-5.0038-2.0675-10.2381-3.0434-15.6322-2.3775-13.1454-4.4755-27.355-5.9617-42.3C94.4674,13.6076,82.44,36.1362,70.2126,59.0807c-2.7135,5.073-5.4286,10.1616-8.08,15.1258-12.7061,23.8391-23.7306,44.5174-23.7306,44.5174a374.4023,374.4023,0,0,1,43.6844,2.5746c11.7275,1.5076,21.4207,3.3733,28.6788,5.013q1.2463.2823,2.3958.5543C121.3206,128.7933,125.7855,130.2887,125.7855,130.2887Z" transform="translate(0 0)"/><path class="cls-9" d="M148.1872,163.0094c10.55,3.0236,23.759-3.0184,31.9345-3.162-61.5366,70.39-141.72,30.9492-159.95-3.3137,15.5629.48,29.7642,8.9561,40.3624,6.1159q.795-.1358,1.5911-.2713c1.01.1371,1.9813.1665,2.5567-.9118,11.13-1.67,10.8287-.6984,22.1122-.8378.9965.4188,18.4216,3.0652,19.4449,2.7561,6.3784.3076,10.0953-.7356,16.46,0,5.3795.6218,8.2786-1.6069,13.7582-1.7618C137.082,162.6038,147.1839,163.0614,148.1872,163.0094Z" transform="translate(0 0)"/></g></g></g></svg>